<svg width="24" height="24" viewBox="0 0 24 24" fill="none" xmlns="http://www.w3.org/2000/svg">
<g clip-path="url(#clip0_8_5099)">
<path d="M18.2942 14.8224L17.4727 14.3481L19.674 13.7583L19.3102 12.4006L15.7512 13.3542L14.0725 12.385C14.0957 12.26 14.1084 12.1315 14.1084 12C14.1084 11.8684 14.0957 11.7398 14.0725 11.6149L15.7512 10.6457L19.3102 11.5994L19.674 10.2416L17.4727 9.65177L18.2942 9.17747L21.8194 8.96588L22.3385 6.03095L19.5373 5.01305L17.5914 7.96016L16.7699 8.43446L17.3598 6.23317L16.002 5.86939L15.0484 9.42842L13.3688 10.3982C13.1741 10.2315 12.949 10.0997 12.7028 10.0124V8.0742L15.3082 5.46879L14.3143 4.47488L12.7028 6.08633V5.13772L14.2773 1.98876L12 0L9.72272 1.98886L11.2972 5.13782V6.08642L9.68571 4.47497L8.69179 5.46889L11.2972 8.0743V10.0125C11.051 10.0998 10.8259 10.2316 10.6312 10.3983L8.95155 9.42852L7.99793 5.86949L6.6402 6.23326L7.23004 8.43456L6.40855 7.96025L4.46271 5.01314L1.6615 6.03104L2.18059 8.96597L5.70579 9.17757L6.52728 9.65187L4.32599 10.2417L4.68981 11.5994L8.24884 10.6458L9.92747 11.615C9.90433 11.74 9.89158 11.8685 9.89158 12C9.89158 12.1316 9.90428 12.2602 9.92747 12.3851L8.24884 13.3543L4.68981 12.4006L4.32599 13.7584L6.52728 14.3482L5.70579 14.8225L2.18059 15.034L1.6615 17.969L4.46276 18.9869L6.4086 16.0397L7.23014 15.5654L6.64029 17.7667L7.99803 18.1306L8.95165 14.5715L10.6313 13.6018C10.826 13.7684 11.0511 13.9003 11.2972 13.9875V15.9258L8.69189 18.5311L9.6858 19.525L11.2973 17.9135V18.8621L9.72282 22.0111L12.0001 24L14.2774 22.0111L12.7029 18.8621V17.9135L14.3144 19.525L15.3083 18.5311L12.703 15.9258V13.9875C12.9491 13.9003 13.1742 13.7684 13.3689 13.6018L15.0486 14.5715L16.0022 18.1306L17.3599 17.7667L16.7701 15.5654L17.5916 16.0397L19.5375 18.9869L22.3387 17.969L21.8196 15.034L18.2942 14.8224Z" fill="#FF4646"/>
</g>
<defs>
<clipPath id="clip0_8_5099">
<rect width="24" height="24" fill="white"/>
</clipPath>
</defs>
</svg>
